<?xml version="1.0" standalone="no"?>
<!DOCTYPE svg PUBLIC "-//W3C//DTD SVG 20010904//EN"
 "http://www.w3.org/TR/2001/REC-SVG-20010904/DTD/svg10.dtd">
<svg version="1.0" xmlns="http://www.w3.org/2000/svg"
 width="87.000000pt" height="87.000000pt" viewBox="0 0 87.000000 87.000000"
 preserveAspectRatio="xMidYMid meet">
<metadata>
Created by potrace 1.11, written by Peter Selinger 2001-2013
</metadata>
<g transform="translate(0.000000,87.000000) scale(0.100000,-0.100000)"
fill="#000000" stroke="none">
<path d="M123 717 c-31 -18 -33 -22 -33 -78 l0 -59 43 -21 43 -21 66 40 66 41
62 -60 61 -61 60 61 60 60 66 -40 67 -41 43 21 43 21 0 59 c0 56 -2 60 -33 78
-25 15 -38 17 -55 10 -23 -10 -30 -27 -12 -27 22 0 60 -48 54 -67 -16 -43 -32
-43 -108 2 l-73 43 -57 -56 -56 -57 -56 56 -56 57 -73 -43 c-80 -47 -98 -46
-107 7 -4 22 1 30 29 45 39 21 41 26 11 40 -18 7 -31 5 -55 -10z"/>
<path d="M391 719 l-34 -21 36 -36 37 -37 37 37 36 36 -34 21 c-19 12 -36 21
-39 21 -3 0 -20 -9 -39 -21z"/>
<path d="M228 523 l-57 -35 -31 19 c-30 17 -32 17 -68 -2 -36 -19 -37 -22 -39
-77 -2 -55 0 -58 31 -78 18 -11 38 -20 43 -20 16 0 8 42 -10 55 -21 15 -22 71
-2 79 9 3 29 -3 46 -13 l31 -19 61 38 c44 27 66 35 75 28 20 -17 15 -23 -39
-53 -76 -41 -85 -53 -84 -109 2 -40 -2 -50 -25 -66 -24 -17 -26 -25 -25 -75 2
-62 3 -63 61 -94 l40 -23 38 23 c35 20 37 24 21 35 -9 7 -31 10 -48 8 -43 -6
-59 7 -62 51 -2 30 1 38 21 47 13 6 25 18 25 27 1 9 2 32 3 51 1 49 15 52 31
8 7 -21 11 -38 9 -38 -2 0 2 -16 10 -35 15 -36 16 -38 16 -54 0 -15 123 -102
137 -97 7 3 38 24 68 47 56 42 57 44 95 187 14 56 26 47 26 -20 -1 -46 2 -55
24 -70 34 -24 37 -81 5 -98 -13 -7 -34 -10 -48 -6 -13 3 -32 0 -42 -7 -16 -13
-14 -15 21 -36 l39 -23 43 23 c54 29 53 28 57 91 3 44 0 53 -23 75 -22 21 -27
34 -27 76 -1 56 1 54 -125 127 -11 6 -12 11 -1 23 11 14 20 11 79 -23 37 -21
69 -36 72 -32 12 16 50 31 65 26 20 -8 20 -70 0 -78 -9 -3 -15 -18 -15 -36 l0
-30 39 26 c38 25 40 27 39 81 -2 52 -4 56 -37 77 l-35 23 -33 -20 -33 -19 -61
36 c-33 20 -66 36 -72 36 -7 0 -38 -26 -69 -59 l-57 -59 -58 59 c-32 32 -65
58 -73 58 -8 0 -41 -16 -72 -36z m169 -115 l33 -32 34 33 c30 29 36 32 57 21
48 -25 48 -26 24 -115 -28 -102 -24 -95 -75 -130 l-41 -28 -42 30 c-38 28 -44
39 -68 123 l-27 91 31 20 c18 10 34 19 37 19 2 0 19 -14 37 -32z"/>
<path d="M337 353 c13 -32 74 -45 66 -14 -3 13 -16 20 -38 23 -24 3 -31 0 -28
-9z"/>
<path d="M456 344 c-3 -9 -6 -18 -6 -20 0 -10 55 6 69 21 14 13 12 15 -21 15
-23 0 -38 -5 -42 -16z"/>
<path d="M370 249 c0 -19 49 -32 82 -23 53 16 43 30 -22 31 -33 1 -60 -3 -60
-8z"/>
</g>
</svg>
